<svg width="75" height="75" viewBox="0 0 75 75" fill="none" xmlns="http://www.w3.org/2000/svg">
<path fill-rule="evenodd" clip-rule="evenodd" d="M61.6196 56.25C53.9508 37.0988 44.9996 32.0512 44.9996 22.5V11.25H46.8746C47.3718 11.25 47.8488 11.0525 48.2004 10.7008C48.552 10.3492 48.7496 9.87228 48.7496 9.375V5.625C48.7496 5.12772 48.552 4.65081 48.2004 4.29917C47.8488 3.94754 47.3718 3.75 46.8746 3.75H28.1246C27.6273 3.75 27.1504 3.94754 26.7987 4.29917C26.4471 4.65081 26.2496 5.12772 26.2496 5.625V9.375C26.2496 9.87228 26.4471 10.3492 26.7987 10.7008C27.1504 11.0525 27.6273 11.25 28.1246 11.25H29.9996V22.5C29.9996 32.0512 21.0483 37.0988 13.3796 56.25C10.9383 62.3438 4.66832 71.25 37.4996 71.25C70.3308 71.25 64.0608 62.3438 61.6196 56.25V56.25ZM55.5558 62.8162C52.9233 63.6037 47.6846 64.5 37.4996 64.5C27.3146 64.5 22.0758 63.6037 19.4433 62.8162C18.5096 62.5387 18.1458 61.455 18.4758 60.4612C19.3008 57.9487 20.8571 53.6062 23.7671 48.7575C30.8771 36.9112 38.2533 50.6212 44.3921 50.6212C50.5308 50.6212 48.8471 44.7675 51.2321 48.7575C53.4268 52.4492 55.2016 56.3749 56.5233 60.4612C56.8533 61.455 56.4896 62.535 55.5558 62.8162V62.8162Z" fill="black"/>
</svg>
