<svg width="51" height="73" viewBox="0 0 51 73" fill="none" xmlns="http://www.w3.org/2000/svg">
<path fill-rule="evenodd" clip-rule="evenodd" d="M25.8762 22.4987C27.3265 22.5208 28.7667 22.2543 30.1131 21.7147C31.4594 21.175 32.6849 20.373 33.7184 19.3552C34.7518 18.3374 35.5725 17.1243 36.1327 15.7864C36.6929 14.4484 36.9814 13.0125 36.9814 11.562C36.9814 10.1115 36.6929 8.67554 36.1327 7.33761C35.5725 5.99969 34.7518 4.78654 33.7184 3.76878C32.6849 2.75102 31.4594 1.94896 30.1131 1.40929C28.7667 0.869627 27.3265 0.603126 25.8762 0.625302C23.0046 0.66921 20.2654 1.84078 18.2502 3.88703C16.235 5.93328 15.1055 8.69002 15.1055 11.562C15.1055 14.434 16.235 17.1907 18.2502 19.2369C20.2654 21.2832 23.0046 22.4548 25.8762 22.4987V22.4987Z" fill="black"/>
<path fill-rule="evenodd" clip-rule="evenodd" d="M25.8763 18.6629C26.8202 18.6809 27.7582 18.5104 28.6355 18.1616C29.5127 17.8127 30.3117 17.2925 30.9856 16.6313C31.6594 15.9701 32.1947 15.1812 32.5601 14.3107C32.9256 13.4402 33.1138 12.5055 33.1138 11.5614C33.1138 10.6174 32.9256 9.68274 32.5601 8.81224C32.1947 7.94174 31.6594 7.15282 30.9856 6.49161C30.3117 5.8304 29.5127 5.31017 28.6355 4.96133C27.7582 4.61249 26.8202 4.44204 25.8763 4.45996C24.0162 4.49525 22.2442 5.25896 20.9412 6.5869C19.6382 7.91485 18.9082 9.70102 18.9082 11.5614C18.9082 13.4219 19.6382 15.2081 20.9412 16.536C22.2442 17.8639 24.0162 18.6276 25.8763 18.6629V18.6629ZM36.8117 11.5627C36.8338 13.013 36.5673 14.4532 36.0277 15.7996C35.488 17.1459 34.6859 18.3715 33.6682 19.4049C32.6504 20.4384 31.4373 21.2591 30.0993 21.8192C28.7614 22.3794 27.3254 22.6679 25.875 22.6679C24.4245 22.6679 22.9885 22.3794 21.6506 21.8192C20.3127 21.2591 19.0995 20.4384 18.0818 19.4049C17.064 18.3715 16.2619 17.1459 15.7223 15.7996C15.1826 14.4532 14.9161 13.013 14.9383 11.5627C14.9822 8.6911 16.1538 5.95195 18.2 3.93675C20.2463 1.92155 23.003 0.791992 25.875 0.791992C28.7469 0.791992 31.5037 1.92155 33.5499 3.93675C35.5962 5.95195 36.7677 8.6911 36.8117 11.5627Z" fill="black"/>
<path fill-rule="evenodd" clip-rule="evenodd" d="M15.9326 38.409V32.4414H35.8194V38.409H15.9326ZM15.9326 42.3848V46.2455C15.9326 47.5035 17.0678 50.7378 20.5476 52.2872C20.9465 52.4662 21.3914 52.6861 21.7953 52.8881L22.0331 53.0031C22.5266 53.2486 23.0047 53.4787 23.4905 53.6858C24.4979 54.1128 25.2854 54.3173 25.876 54.3173C26.4641 54.3173 27.2515 54.1128 28.2615 53.6858C28.7473 53.4813 29.2254 53.2486 29.7188 53.0031L29.9566 52.8855C30.358 52.6861 30.8055 52.4637 31.2043 52.2872C34.6841 50.7378 35.8194 47.5035 35.8194 46.243V42.3848H15.9326Z" fill="black"/>
<path fill-rule="evenodd" clip-rule="evenodd" d="M22.1073 48.7844C22.5803 48.9941 23.0891 49.2446 23.47 49.4364L23.7308 49.5643L23.7334 49.5668C24.2166 49.8046 24.6104 49.9938 24.9862 50.1549C25.2747 50.2807 25.5721 50.3849 25.876 50.4668C26.1799 50.3841 26.4774 50.279 26.7658 50.1523C27.1416 49.9938 27.5353 49.8046 28.0186 49.5668L28.2819 49.4364C28.6629 49.2472 29.1717 48.9941 29.6447 48.7844C30.5907 48.3626 31.1864 47.7361 31.5572 47.1379C31.735 46.8521 31.8727 46.5433 31.9663 46.22H19.7831C19.877 46.5424 20.0146 46.8503 20.1922 47.1353C20.5655 47.7336 21.1638 48.3626 22.1073 48.7844V48.7844ZM15.9326 42.3848H35.8194V46.2455C35.8194 47.5035 34.6841 50.7378 31.2043 52.2872C30.8055 52.4662 30.358 52.6861 29.9566 52.8881L29.7188 53.0031C29.2228 53.2486 28.7473 53.4787 28.2615 53.6858C27.2515 54.1128 26.4666 54.3173 25.876 54.3173C25.2854 54.3173 24.4979 54.1128 23.4905 53.6858C23.0047 53.4813 22.5266 53.2486 22.0331 53.0031L21.7953 52.8855C21.3939 52.6861 20.9465 52.4637 20.5476 52.2872C17.0678 50.7378 15.9326 47.5035 15.9326 46.243V42.3848ZM15.9326 38.409V32.4414H35.8194V38.409H15.9326Z" fill="black"/>
<path fill-rule="evenodd" clip-rule="evenodd" d="M13.9049 51.7295C10.8188 54.4141 9.12109 57.7942 9.12109 62.2507C9.12109 64.0277 9.4995 66.6944 10.489 68.8574C11.5015 71.0691 12.8591 72.2145 14.5773 72.2145C16.4182 72.2145 17.9778 70.8032 17.9778 68.9878C17.9778 68.1825 17.6378 67.418 17.0957 66.2828L17.0599 66.2061C16.5716 65.1833 15.9247 63.8257 15.9247 62.2507C15.9247 60.5249 16.7787 58.6968 17.7758 57.2138C18.0929 56.7408 18.4304 56.3522 18.7858 56.0198C16.4335 54.9511 14.856 53.3352 13.9049 51.7295V51.7295Z" fill="black"/>
<path fill-rule="evenodd" clip-rule="evenodd" d="M16.6432 59.2465C16.2085 60.2232 15.9273 61.2535 15.9273 62.2507C15.9273 63.8257 16.5716 65.1808 17.0625 66.2086L17.0957 66.2853C17.6378 67.418 17.9778 68.1825 17.9778 68.9878C17.9778 70.8032 16.4182 72.2145 14.5773 72.2145C12.8591 72.2145 11.5015 71.0691 10.489 68.8574C9.4995 66.6944 9.12109 64.0251 9.12109 62.2507C9.12109 59.2976 9.86768 56.8175 11.2688 54.7005C12.0089 53.5953 12.8957 52.5959 13.9049 51.7295C14.5366 52.7959 15.3571 53.7385 16.3261 54.5113C17.0267 55.0789 17.8449 55.5928 18.7858 56.0198C18.4304 56.3522 18.0954 56.7408 17.7758 57.2164C17.354 57.8428 16.9577 58.5306 16.6432 59.2465V59.2465Z" fill="black"/>
<path fill-rule="evenodd" clip-rule="evenodd" d="M32.9653 56.0198C35.3176 54.9511 36.8951 53.3352 37.8462 51.7295C40.9297 54.4141 42.6275 57.7916 42.6275 62.2481C42.6275 64.0277 42.249 66.6944 41.2621 68.8549C40.2496 71.0691 38.8894 72.212 37.1713 72.212C35.3304 72.212 33.7707 70.8032 33.7707 68.9878C33.7707 68.1799 34.1133 67.418 34.6528 66.2828L34.6886 66.2061C35.177 65.1808 35.8238 63.8257 35.8238 62.2481C35.8238 60.5249 34.9699 58.6942 33.9753 57.2138C33.6844 56.7793 33.3456 56.3788 32.9653 56.0198V56.0198Z" fill="black"/>
<path fill-rule="evenodd" clip-rule="evenodd" d="M35.425 54.5113C34.672 55.1159 33.8456 55.6227 32.9653 56.0198C33.3182 56.3522 33.6557 56.7382 33.9753 57.2138C34.3946 57.8402 34.7934 58.528 35.1079 59.2439C35.54 60.2232 35.8238 61.2535 35.8238 62.2481C35.8238 63.8257 35.177 65.1808 34.6886 66.2061L34.6528 66.2828C34.1133 67.418 33.7707 68.1799 33.7707 68.9878C33.7707 70.8032 35.3304 72.212 37.1713 72.212C38.8894 72.212 40.2496 71.0691 41.2621 68.8549C42.249 66.6944 42.63 64.0251 42.63 62.2481C42.63 59.295 41.8834 56.8175 40.4823 54.6979C39.7411 53.5937 38.8535 52.5951 37.8437 51.7295C37.2127 52.7957 36.3931 53.7383 35.425 54.5113V54.5113Z" fill="black"/>
<path fill-rule="evenodd" clip-rule="evenodd" d="M50.7253 26.2184C51.0504 27.5345 50.8395 28.9259 50.1391 30.0867C49.4386 31.2475 48.3058 32.0825 46.9898 32.4083C38.9845 34.3899 32.48 35.3972 25.8554 35.3742C19.2435 35.3487 12.7595 34.2953 4.8155 32.4237C3.49523 32.1124 2.35268 31.2895 1.6392 30.1358C0.925714 28.9822 0.699742 27.5923 1.01099 26.272C1.32224 24.9518 2.14522 23.8092 3.29887 23.0957C4.45253 22.3823 5.84237 22.1563 7.16263 22.4675C14.7512 24.2573 20.3864 25.124 25.8937 25.1445C31.3908 25.165 37.0055 24.3442 44.5327 22.4829C45.8489 22.1569 47.2407 22.3671 48.402 23.0671C49.5632 23.7671 50.3989 24.8997 50.7253 26.2158V26.2184Z" fill="black"/>
</svg>
